<?xml version="1.0" encoding="UTF-8"?>
<svg width="16px" height="16px" viewBox="0 0 16 16" version="1.1" xmlns="http://www.w3.org/2000/svg" xmlns:xlink="http://www.w3.org/1999/xlink">
    <!-- Generator: Sketch 43.2 (39069) - http://www.bohemiancoding.com/sketch -->
    <title>note</title>
    <desc>Created with Sketch.</desc>
    <defs></defs>
    <g id="parts" stroke="none" stroke-width="1" fill="none" fill-rule="evenodd">
        <g id="Artboard" transform="translate(-341.000000, -39.000000)" fill="#EEECF5">
            <g id="notes" transform="translate(341.000000, 39.000000)">
                <path d="M0.695652174,4.17391304 L0.695652174,14.6095679 C0.695652174,14.9992245 1.00943718,15.3043478 1.39651059,15.3043478 L11.1304348,15.3043478 L11.1304348,11.8302046 C11.1304348,11.0515164 11.752693,10.4347826 12.5202874,10.4347826 L15.3043478,10.4347826 L15.3043478,4.17391304 L0.695652174,4.17391304 L0.695652174,4.17391304 L0.695652174,4.17391304 Z M0.695652174,3.47826087 L0.695652174,1.39043206 C0.695652174,1.00671573 1.00077555,0.695652174 1.39043206,0.695652174 L14.6095679,0.695652174 C14.9932842,0.695652174 15.3043478,1.00866001 15.3043478,1.39606641 L15.3043478,3.47826087 L0.695652174,3.47826087 L0.695652174,3.47826087 Z M11.4782609,16 L1.39137821,16 C0.622941245,16 0,15.372781 0,14.6080945 L0,1.39190554 C0,0.623177343 0.627218963,0 1.39190554,0 L14.6080945,0 C15.3768227,0 16,0.622270442 16,1.38717237 L16,10.7826087 L16,11.1304348 L11.826087,16 L11.4782609,16 L11.4782609,16 L11.4782609,16 Z M11.826087,14.9565217 L11.826087,11.8321981 C11.826087,11.4446249 12.1395834,11.1304348 12.5194705,11.1304348 L15.0956182,11.1304348 L11.826087,14.9565217 L11.826087,14.9565217 Z M2.08695652,6.26086957 L2.08695652,6.95652174 L13.9130435,6.95652174 L13.9130435,6.26086957 L2.08695652,6.26086957 L2.08695652,6.26086957 Z M2.08695652,8.34782609 L2.08695652,9.04347826 L13.9130435,9.04347826 L13.9130435,8.34782609 L2.08695652,8.34782609 L2.08695652,8.34782609 Z M2.08695652,10.4347826 L2.08695652,11.1304348 L9.73913043,11.1304348 L9.73913043,10.4347826 L2.08695652,10.4347826 L2.08695652,10.4347826 Z M2.08695652,12.5217391 L2.08695652,13.2173913 L9.73913043,13.2173913 L9.73913043,12.5217391 L2.08695652,12.5217391 L2.08695652,12.5217391 Z" id="note"></path>
            </g>
        </g>
    </g>
</svg>