<?xml version="1.0" encoding="UTF-8"?>
<svg width="206px" height="87px" viewBox="0 0 206 87" version="1.1" xmlns="http://www.w3.org/2000/svg" xmlns:xlink="http://www.w3.org/1999/xlink">
    <!-- Generator: Sketch 43.2 (39069) - http://www.bohemiancoding.com/sketch -->
    <title>logo-white</title>
    <desc>Created with Sketch.</desc>
    <defs></defs>
    <g id="parts" stroke="none" stroke-width="1" fill="none" fill-rule="evenodd">
        <g id="Artboard" transform="translate(-56.000000, -132.000000)" fill="currentColor">
            <g id="Group-2" transform="translate(38.000000, 114.000000)">
                <g id="Group">
                    <path d="M61.3111451,81.5644455 C66.4631451,81.5644455 67.6951451,78.0924455 67.6951451,72.2684455 C67.6951451,67.5644455 66.4631451,62.7484455 61.7591451,62.7484455 C56.7191451,62.7484455 52.9111451,66.8924455 52.9111451,72.8284455 C52.9111451,77.1964455 56.1591451,81.5644455 61.3111451,81.5644455 Z M54.7031451,22.5404455 L54.5911451,21.3084455 C57.5031451,18.9564455 61.7591451,16.3804455 65.9031451,16.3804455 C73.1831451,16.3804455 81.8071451,19.5164455 81.8071451,23.6604455 C81.8071451,26.9084455 79.7911451,29.5964455 79.4551451,32.2844455 C79.3431451,33.1804455 79.2311451,34.5244455 79.2311451,36.2044455 C100.847145,33.5164455 100.623145,31.9484455 102.079145,31.9484455 C109.135145,31.9484455 117.423145,35.7564455 117.423145,41.8044455 C117.423145,46.5084455 114.623145,46.9564455 110.591145,46.9564455 C104.879145,46.9564455 98.6071451,43.5964455 78.8951451,45.1644455 C78.6711451,50.6524455 78.5591451,56.9244455 78.6711451,62.6364455 C82.0311451,66.6684455 83.3751451,72.3804455 83.3751451,77.9804455 C83.3751451,102.620445 62.5431451,114.268445 36.4471451,116.732445 L35.7751451,114.940445 C49.5511451,110.124445 61.0871451,103.292445 65.5671451,92.9884455 C54.1431451,95.2284455 46.3031451,85.4844455 46.3031451,74.2844455 C46.3031451,63.5324455 53.9191451,56.1404455 63.1031451,56.1404455 C64.7831451,56.1404455 66.3511451,56.2524455 67.8071451,56.4764455 C67.5831451,53.7884455 67.3591451,50.2044455 67.1351451,46.5084455 C55.8231451,48.0764455 47.5351451,50.2044455 42.8311451,51.6604455 C37.3431451,53.3404455 34.9911451,56.0284455 30.6231451,56.0284455 C25.8071451,56.0284455 18.6391451,49.6444455 17.4071451,44.4924455 C16.7351451,41.6924455 16.8471451,38.3324455 17.0711451,35.7564455 L18.5271451,35.0844455 C23.2311451,40.1244455 24.7991451,41.1324455 28.7191451,41.2444455 C33.8711451,41.4684455 53.8071451,39.1164455 66.3511451,37.6604455 C66.0151451,33.8524455 65.5671451,30.4924455 65.2311451,28.4764455 C64.8951451,26.6844455 64.3351451,25.9004455 62.5431451,25.0044455 C60.5271451,23.9964455 57.7271451,23.2124455 54.7031451,22.5404455 Z" id="ã™" transform="translate(67.160432, 66.556445) rotate(24.000000) translate(-67.160432, -66.556445) "></path>
                    <path d="M86.64,80.26 L86.64,93.42 C86.64,94.4466718 86.873331,95.2399972 87.34,95.8 C87.806669,96.3600028 88.4933288,96.64 89.4,96.64 C90.0800034,96.64 90.7166637,96.5000014 91.31,96.22 C91.9033363,95.9399986 92.4799972,95.5466692 93.04,95.04 L93.04,80.26 L99.24,80.26 L99.24,101 L95.4,101 C94.6266628,101 94.1200012,100.653337 93.88,99.96 L93.5,98.76 C93.099998,99.1466686 92.6866688,99.4966651 92.26,99.81 C91.8333312,100.123335 91.3766691,100.389999 90.89,100.61 C90.4033309,100.830001 89.8800028,101.003333 89.32,101.13 C88.7599972,101.256667 88.14667,101.32 87.48,101.32 C86.346661,101.32 85.3433377,101.123335 84.47,100.73 C83.5966623,100.336665 82.860003,99.7866702 82.26,99.08 C81.659997,98.3733298 81.2066682,97.5400048 80.9,96.58 C80.5933318,95.6199952 80.44,94.5666724 80.44,93.42 L80.44,80.26 L86.64,80.26 Z M105.04,101 L105.04,71.06 L111.24,71.06 L111.24,82.46 C112.013337,81.6999962 112.889995,81.0900023 113.87,80.63 C114.850005,80.1699977 115.999993,79.94 117.32,79.94 C118.400005,79.94 119.399995,80.173331 120.32,80.64 C121.240005,81.106669 122.03333,81.7899955 122.7,82.69 C123.36667,83.5900045 123.889998,84.6933268 124.27,86 C124.650002,87.3066732 124.84,88.793325 124.84,90.46 C124.84,92.0200078 124.623335,93.4599934 124.19,94.78 C123.756664,96.1000066 123.150004,97.2466618 122.37,98.22 C121.589996,99.1933382 120.656672,99.9533306 119.57,100.5 C118.483328,101.046669 117.280007,101.32 115.96,101.32 C115.346664,101.32 114.796669,101.260001 114.31,101.14 C113.823331,101.019999 113.376669,100.850001 112.97,100.63 C112.563331,100.409999 112.190002,100.146668 111.85,99.84 C111.509998,99.5333318 111.180002,99.2000018 110.86,98.84 L110.64,99.88 C110.546666,100.306669 110.376668,100.599999 110.13,100.76 C109.883332,100.920001 109.560002,101 109.16,101 L105.04,101 Z M115.16,84.6 C114.706664,84.6 114.296669,84.6433329 113.93,84.73 C113.563332,84.8166671 113.223335,84.9399992 112.91,85.1 C112.596665,85.2600008 112.306668,85.4633321 112.04,85.71 C111.773332,85.9566679 111.506668,86.2399984 111.24,86.56 L111.24,95.36 C111.706669,95.8800026 112.213331,96.2433323 112.76,96.45 C113.306669,96.6566677 113.879997,96.76 114.48,96.76 C115.053336,96.76 115.579998,96.6466678 116.06,96.42 C116.540002,96.1933322 116.956665,95.8300025 117.31,95.33 C117.663335,94.8299975 117.939999,94.180004 118.14,93.38 C118.340001,92.579996 118.44,91.6066724 118.44,90.46 C118.44,89.3666612 118.360001,88.4466704 118.2,87.7 C118.039999,86.9533296 117.816668,86.3500023 117.53,85.89 C117.243332,85.4299977 116.900002,85.100001 116.5,84.9 C116.099998,84.699999 115.653336,84.6 115.16,84.6 Z M128.84,86.34 L139.64,86.34 L139.64,91.34 L128.84,91.34 L128.84,86.34 Z M151.44,71.06 L151.44,101 L145.24,101 L145.24,71.06 L151.44,71.06 Z M171.76,101 C171.17333,101 170.730002,100.920001 170.43,100.76 C170.129998,100.599999 169.880001,100.266669 169.68,99.76 L169.24,98.62 C168.719997,99.0600022 168.220002,99.446665 167.74,99.78 C167.259998,100.113335 166.763336,100.396665 166.25,100.63 C165.736664,100.863335 165.190003,101.036666 164.61,101.15 C164.029997,101.263334 163.38667,101.32 162.68,101.32 C161.733329,101.32 160.873337,101.196668 160.1,100.95 C159.326663,100.703332 158.670003,100.340002 158.13,99.86 C157.589997,99.3799976 157.173335,98.7833369 156.88,98.07 C156.586665,97.3566631 156.44,96.533338 156.44,95.6 C156.44,94.866663 156.626665,94.1133372 157,93.34 C157.373335,92.5666628 158.019995,91.8633365 158.94,91.23 C159.860005,90.5966635 161.099992,90.0666688 162.66,89.64 C164.220008,89.2133312 166.186655,88.9733336 168.56,88.92 L168.56,88.04 C168.56,86.8266606 168.310002,85.9500027 167.81,85.41 C167.309998,84.8699973 166.600005,84.6 165.68,84.6 C164.946663,84.6 164.346669,84.6799992 163.88,84.84 C163.413331,85.0000008 162.996668,85.179999 162.63,85.38 C162.263331,85.580001 161.906668,85.7599992 161.56,85.92 C161.213332,86.0800008 160.800002,86.16 160.32,86.16 C159.893331,86.16 159.530001,86.0566677 159.23,85.85 C158.929999,85.6433323 158.693334,85.3866682 158.52,85.08 L157.4,83.14 C158.65334,82.0333278 160.043326,81.2100027 161.57,80.67 C163.096674,80.1299973 164.733325,79.86 166.48,79.86 C167.73334,79.86 168.863328,80.0633313 169.87,80.47 C170.876672,80.8766687 171.729997,81.4433297 172.43,82.17 C173.130003,82.8966703 173.666665,83.759995 174.04,84.76 C174.413335,85.760005 174.6,86.8533274 174.6,88.04 L174.6,101 L171.76,101 Z M164.64,97.22 C165.440004,97.22 166.139997,97.0800014 166.74,96.8 C167.340003,96.5199986 167.946664,96.0666698 168.56,95.44 L168.56,92.56 C167.319994,92.6133336 166.300004,92.7199992 165.5,92.88 C164.699996,93.0400008 164.066669,93.2399988 163.6,93.48 C163.133331,93.7200012 162.810001,93.9933318 162.63,94.3 C162.449999,94.6066682 162.36,94.9399982 162.36,95.3 C162.36,96.0066702 162.553331,96.5033319 162.94,96.79 C163.326669,97.0766681 163.89333,97.22 164.64,97.22 Z M180,101 L180,71.06 L186.2,71.06 L186.2,82.46 C186.973337,81.6999962 187.849995,81.0900023 188.83,80.63 C189.810005,80.1699977 190.959993,79.94 192.28,79.94 C193.360005,79.94 194.359995,80.173331 195.28,80.64 C196.200005,81.106669 196.99333,81.7899955 197.66,82.69 C198.32667,83.5900045 198.849998,84.6933268 199.23,86 C199.610002,87.3066732 199.8,88.793325 199.8,90.46 C199.8,92.0200078 199.583336,93.4599934 199.15,94.78 C198.716665,96.1000066 198.110004,97.2466618 197.33,98.22 C196.549996,99.1933382 195.616672,99.9533306 194.53,100.5 C193.443328,101.046669 192.240007,101.32 190.92,101.32 C190.306664,101.32 189.756669,101.260001 189.27,101.14 C188.783331,101.019999 188.336669,100.850001 187.93,100.63 C187.523331,100.409999 187.150002,100.146668 186.81,99.84 C186.469998,99.5333318 186.140002,99.2000018 185.82,98.84 L185.6,99.88 C185.506666,100.306669 185.336668,100.599999 185.09,100.76 C184.843332,100.920001 184.520002,101 184.12,101 L180,101 Z M190.12,84.6 C189.666664,84.6 189.256668,84.6433329 188.89,84.73 C188.523332,84.8166671 188.183335,84.9399992 187.87,85.1 C187.556665,85.2600008 187.266668,85.4633321 187,85.71 C186.733332,85.9566679 186.466668,86.2399984 186.2,86.56 L186.2,95.36 C186.666669,95.8800026 187.173331,96.2433323 187.72,96.45 C188.266669,96.6566677 188.839997,96.76 189.44,96.76 C190.013336,96.76 190.539998,96.6466678 191.02,96.42 C191.500002,96.1933322 191.916665,95.8300025 192.27,95.33 C192.623335,94.8299975 192.899999,94.180004 193.1,93.38 C193.300001,92.579996 193.4,91.6066724 193.4,90.46 C193.4,89.3666612 193.320001,88.4466704 193.16,87.7 C192.999999,86.9533296 192.776668,86.3500023 192.49,85.89 C192.203332,85.4299977 191.860002,85.100001 191.46,84.9 C191.059998,84.699999 190.613336,84.6 190.12,84.6 Z M213.44,79.94 C215.013341,79.94 216.44666,80.1866642 217.74,80.68 C219.03334,81.1733358 220.143329,81.8799954 221.07,82.8 C221.996671,83.7200046 222.716664,84.8366601 223.23,86.15 C223.743336,87.4633399 224,88.9399918 224,90.58 C224,92.2333416 223.743336,93.7233267 223.23,95.05 C222.716664,96.3766733 221.996671,97.5033287 221.07,98.43 C220.143329,99.3566713 219.03334,100.069997 217.74,100.57 C216.44666,101.070002 215.013341,101.32 213.44,101.32 C211.853325,101.32 210.410007,101.070002 209.11,100.57 C207.809994,100.069997 206.690005,99.3566713 205.75,98.43 C204.809995,97.5033287 204.083336,96.3766733 203.57,95.05 C203.056664,93.7233267 202.8,92.2333416 202.8,90.58 C202.8,88.9399918 203.056664,87.4633399 203.57,86.15 C204.083336,84.8366601 204.809995,83.7200046 205.75,82.8 C206.690005,81.8799954 207.809994,81.1733358 209.11,80.68 C210.410007,80.1866642 211.853325,79.94 213.44,79.94 Z M213.44,96.72 C214.866674,96.72 215.916663,96.2166717 216.59,95.21 C217.263337,94.2033283 217.6,92.6733436 217.6,90.62 C217.6,88.5666564 217.263337,87.040005 216.59,86.04 C215.916663,85.039995 214.866674,84.54 213.44,84.54 C211.973326,84.54 210.900003,85.039995 210.22,86.04 C209.539997,87.040005 209.2,88.5666564 209.2,90.62 C209.2,92.6733436 209.539997,94.2033283 210.22,95.21 C210.900003,96.2166717 211.973326,96.72 213.44,96.72 Z" id="ub-labo"></path>
                </g>
            </g>
        </g>
    </g>
</svg>
