<?xml version="1.0" encoding="UTF-8"?>
<svg width="52px" height="43px" viewBox="0 0 52 43" version="1.1" xmlns="http://www.w3.org/2000/svg" xmlns:xlink="http://www.w3.org/1999/xlink">
    <!-- Generator: Sketch 43.2 (39069) - http://www.bohemiancoding.com/sketch -->
    <title>す</title>
    <desc>Created with Sketch.</desc>
    <defs></defs>
    <g id="parts" stroke="none" stroke-width="1" fill="none" fill-rule="evenodd">
        <g id="Artboard" transform="translate(-454.000000, -130.000000)" fill="currentColor">
            <path d="M475.269995,161.284316 C477.73003,161.284316 478.318299,159.623601 478.318299,156.837887 C478.318299,154.587887 477.73003,152.284316 475.483911,152.284316 C473.077356,152.284316 471.25907,154.266458 471.25907,157.105744 C471.25907,159.19503 472.809961,161.284316 475.269995,161.284316 Z M472.114734,133.052173 L472.061255,132.462887 C473.451709,131.337887 475.483911,130.105744 477.462635,130.105744 C480.93877,130.105744 485.056654,131.605744 485.056654,133.587887 C485.056654,135.141458 484.094032,136.427173 483.933595,137.712887 C483.880116,138.141458 483.826637,138.784316 483.826637,139.587887 C494.148085,138.302173 494.041127,137.552173 494.736354,137.552173 C498.105531,137.552173 502.062978,139.373601 502.062978,142.266458 C502.062978,144.516458 500.726003,144.730744 498.800758,144.730744 C496.073329,144.730744 493.078505,143.123601 483.6662,143.873601 C483.559242,146.498601 483.505763,149.498601 483.559242,152.230744 C485.163612,154.159316 485.80536,156.891458 485.80536,159.57003 C485.80536,171.355744 475.858265,176.927173 463.397656,178.105744 L463.076782,177.248601 C469.6547,174.94503 475.163037,171.677173 477.302198,166.748601 C471.847339,167.82003 468.103808,163.159316 468.103808,157.802173 C468.103808,152.659316 471.740381,149.123601 476.12566,149.123601 C476.927845,149.123601 477.676551,149.177173 478.371778,149.284316 C478.26482,147.998601 478.157862,146.284316 478.050904,144.516458 C472.649524,145.266458 468.692078,146.284316 466.445959,146.980744 C463.825488,147.784316 462.702429,149.07003 460.616748,149.07003 C458.31715,149.07003 454.894494,146.016458 454.306225,143.552173 C453.985351,142.212887 454.03883,140.605744 454.145788,139.373601 L454.841015,139.052173 C457.087133,141.462887 457.835839,141.94503 459.707604,141.998601 C462.167639,142.105744 471.686902,140.980744 477.676551,140.284316 C477.516114,138.462887 477.302198,136.855744 477.141761,135.891458 C476.981324,135.034316 476.713929,134.659316 475.858265,134.230744 C474.895642,133.748601 473.558667,133.373601 472.114734,133.052173 Z" id="す" transform="translate(478.062978, 154.105744) rotate(24.000000) translate(-478.062978, -154.105744) "></path>
        </g>
    </g>
</svg>
